<svg viewBox="0 0 83 84" fill="none" xmlns="http://www.w3.org/2000/svg">
<path class="inset" id='inset' d="M23.7407 72.8106C36.6292 66.3354 47.2687 65.8754 58.7626 71.2964C63.0307 73.3095 67.9517 76.4506 71.8879 79.6745L74.3881 81.722L77.5939 78.52C79.357 76.759 80.7998 75.1918 80.7998 75.0375C80.7998 74.8829 79.6319 73.2954 78.2043 71.509C72.8687 64.8316 68.8854 56.8135 67.4613 49.8837C66.3445 44.4509 66.7775 36.2501 68.4582 30.9909C70.5414 24.4719 74.638 17.0952 79.9857 10.2339L81 8.93235L77.7077 5.61867L74.4154 2.30492L71.304 4.81059C66.5881 8.60842 60.1894 12.5035 55.9862 14.135C42.7059 19.2895 32.2473 17.2393 14.5064 6.00384L8.18471 2L5.09214 5.47742L2 8.95492L4.29413 11.8861C20.4543 32.5328 20.4529 51.3349 4.29145 72.615L2.40841 75.094L3.75229 76.5999C4.49117 77.4281 5.90939 78.9819 6.90308 80.0529L8.70999 82L13.8974 78.5754C16.7504 76.6918 21.1806 74.0977 23.7425 72.8106H23.7407Z" stroke-linecap="square" stroke-linejoin="round"/>
</svg>
